<svg width="245" height="175" viewBox="0 0 245 175" fill="none" xmlns="http://www.w3.org/2000/svg">
<path d="M245 0H0V175H245V0Z" fill="#7763EB"/>
<path opacity="0.159993" d="M122.5 138.624C150.758 138.624 173.665 115.735 173.665 87.5C173.665 59.2652 150.758 36.3764 122.5 36.3764C94.2426 36.3764 71.3354 59.2652 71.3354 87.5C71.3354 115.735 94.2426 138.624 122.5 138.624Z" fill="#5646B1"/>
<g filter="url(#filter0_d)">
<path d="M97.4292 106.901C116.892 106.901 132.67 91.1353 132.67 71.6879C132.67 52.2405 116.892 36.4752 97.4292 36.4752C77.9661 36.4752 62.1882 52.2405 62.1882 71.6879C62.1882 91.1353 77.9661 106.901 97.4292 106.901Z" fill="black"/>
</g>
<path d="M97.4292 106.901C116.892 106.901 132.67 91.1353 132.67 71.6879C132.67 52.2405 116.892 36.4752 97.4292 36.4752C77.9661 36.4752 62.1882 52.2405 62.1882 71.6879C62.1882 91.1353 77.9661 106.901 97.4292 106.901Z" fill="#FFEE55" stroke="#ECDC4B" stroke-width="4"/>
<g filter="url(#filter1_d)">
<path d="M147.571 145.014C167.034 145.014 182.812 129.249 182.812 109.801C182.812 90.3539 167.034 74.5887 147.571 74.5887C128.108 74.5887 112.33 90.3539 112.33 109.801C112.33 129.249 128.108 145.014 147.571 145.014Z" fill="black"/>
</g>
<path d="M147.571 145.014C167.034 145.014 182.812 129.249 182.812 109.801C182.812 90.3539 167.034 74.5887 147.571 74.5887C128.108 74.5887 112.33 90.3539 112.33 109.801C112.33 129.249 128.108 145.014 147.571 145.014Z" fill="#FFEE55" stroke="#ECDC4B" stroke-width="4"/>
<path fill-rule="evenodd" clip-rule="evenodd" d="M201.921 41.9899L198.045 47.13L197.975 47.0773C197.915 47.2527 197.831 47.4135 197.722 47.5583C196.116 49.6874 189.713 47.5726 183.421 42.8348C177.128 38.097 173.329 32.5303 174.934 30.4012C175.044 30.2563 175.175 30.1311 175.327 30.025L175.257 29.9729L179.134 24.8328L179.204 24.8849C178.379 27.2865 182.078 32.4223 187.943 36.8381C193.808 41.2539 199.768 43.3911 201.852 41.9374L201.921 41.9899Z" fill="#FFB841"/>
<path d="M187.727 37.7012C194.019 42.439 200.314 44.6976 201.786 42.7459C203.258 40.7942 199.35 35.3714 193.057 30.6336C186.765 25.8958 180.47 23.6372 178.998 25.5889C177.526 27.5406 181.434 32.9634 187.727 37.7012Z" fill="#FFFD62"/>
<path fill-rule="evenodd" clip-rule="evenodd" d="M40.8333 36.7843L43.9139 39.8624L43.8721 39.904C43.984 39.9607 44.0838 40.0322 44.1706 40.119C45.4467 41.394 43.4257 45.4805 39.6567 49.2466C35.8876 53.0126 31.7978 55.0319 30.5217 53.7569C30.4349 53.6702 30.3633 53.5704 30.3066 53.4586L30.265 53.5004L27.1844 50.4223L27.2256 50.3804C28.7578 51.1584 32.5496 49.1656 36.0626 45.6554C39.5756 42.1452 41.57 38.3565 40.7915 36.8255L40.8333 36.7843Z" fill="#FFB841"/>
<path d="M36.6224 45.8797C40.3914 42.1137 42.4986 38.1132 41.3289 36.9445C40.1592 35.7757 36.1555 37.8812 32.3865 41.6472C28.6174 45.4132 26.5102 49.4137 27.6799 50.5824C28.8497 51.7512 32.8533 49.6457 36.6224 45.8797Z" fill="#FFFD62"/>
<path fill-rule="evenodd" clip-rule="evenodd" d="M62.759 140.266L59.6784 143.344L59.6368 143.302C59.58 143.414 59.5085 143.514 59.4216 143.601C58.1456 144.876 54.0557 142.856 50.2867 139.09C46.5177 135.324 44.4967 131.238 45.7727 129.963C45.8595 129.876 45.9594 129.804 46.0713 129.748L46.0294 129.706L49.1101 126.628L49.1519 126.669C48.3734 128.2 50.3677 131.989 53.8808 135.499C57.3938 139.009 61.1855 141.002 62.7177 140.224L62.759 140.266Z" fill="#FFB841"/>
<path d="M53.6565 136.058C57.4255 139.824 61.4291 141.93 62.5989 140.761C63.7686 139.592 61.6614 135.592 57.8923 131.826C54.1233 128.06 50.1196 125.954 48.9499 127.123C47.7802 128.292 49.8874 132.292 53.6565 136.058Z" fill="#FFFD62"/>
<path d="M97.4293 91.5966C108.433 91.5966 117.354 82.6832 117.354 71.6879C117.354 60.6926 108.433 51.7792 97.4293 51.7792C86.4252 51.7792 77.5046 60.6926 77.5046 71.6879C77.5046 82.6832 86.4252 91.5966 97.4293 91.5966Z" fill="#A7541D"/>
<path d="M96.4443 65.0824V74.2898C96.4443 75.8196 95.9655 77.0293 95.0078 77.919C94.0501 78.8087 92.7417 79.2535 91.0826 79.2535C89.4491 79.2535 88.152 78.8215 87.1911 77.9574C86.2302 77.0933 85.7402 75.906 85.7209 74.3954V65.0824H88.6036V74.309C88.6036 75.2243 88.823 75.8916 89.2618 76.3108C89.7006 76.7301 90.3075 76.9397 91.0826 76.9397C92.7033 76.9397 93.5265 76.0884 93.5521 74.3858V65.0824H96.4443Z" fill="white"/>
<path d="M104.266 65.0824C105.316 65.0824 106.24 65.2744 107.038 65.6585C107.836 66.0425 108.449 66.5882 108.878 67.2954C109.307 68.0027 109.522 68.8076 109.522 69.7101C109.522 71.0799 109.053 72.16 108.114 72.9504C107.176 73.7409 105.877 74.1362 104.218 74.1362H101.691V79.0615H98.8081V65.0824H104.266ZM104.333 67.4154H101.691V71.8031H104.266C105.028 71.8031 105.61 71.6239 106.01 71.2655C106.41 70.907 106.61 70.395 106.61 69.7293C106.61 69.0444 106.409 68.4908 106.005 68.0683C105.602 67.6459 105.044 67.4283 104.333 67.4154Z" fill="white"/>
<path d="M147.571 129.71C158.575 129.71 167.495 120.797 167.495 109.801C167.495 98.8061 158.575 89.8926 147.571 89.8926C136.567 89.8926 127.646 98.8061 127.646 109.801C127.646 120.797 136.567 129.71 147.571 129.71Z" fill="#48AC32"/>
<path d="M147.575 108.016L150.199 103.196H153.514L149.439 110.128L153.619 117.175H150.266L147.575 112.278L144.885 117.175H141.531L145.711 110.128L141.637 103.196H144.952L147.575 108.016Z" fill="white"/>
<defs>
<filter id="filter0_d" x="58.1882" y="34.4752" width="78.4819" height="78.4254" filterUnits="userSpaceOnUse" color-interpolation-filters="sRGB">
<feFlood flood-opacity="0" result="BackgroundImageFix"/>
<feColorMatrix in="SourceAlpha" type="matrix" values="0 0 0 0 0 0 0 0 0 0 0 0 0 0 0 0 0 0 127 0"/>
<feOffset dy="2"/>
<feGaussianBlur stdDeviation="2"/>
<feColorMatrix type="matrix" values="0 0 0 0 0 0 0 0 0 0 0 0 0 0 0 0 0 0 0.209271 0"/>
<feBlend mode="normal" in2="BackgroundImageFix" result="effect1_dropShadow"/>
<feBlend mode="normal" in="SourceGraphic" in2="effect1_dropShadow" result="shape"/>
</filter>
<filter id="filter1_d" x="108.33" y="72.5887" width="78.4819" height="78.4253" filterUnits="userSpaceOnUse" color-interpolation-filters="sRGB">
<feFlood flood-opacity="0" result="BackgroundImageFix"/>
<feColorMatrix in="SourceAlpha" type="matrix" values="0 0 0 0 0 0 0 0 0 0 0 0 0 0 0 0 0 0 127 0"/>
<feOffset dy="2"/>
<feGaussianBlur stdDeviation="2"/>
<feColorMatrix type="matrix" values="0 0 0 0 0 0 0 0 0 0 0 0 0 0 0 0 0 0 0.209271 0"/>
<feBlend mode="normal" in2="BackgroundImageFix" result="effect1_dropShadow"/>
<feBlend mode="normal" in="SourceGraphic" in2="effect1_dropShadow" result="shape"/>
</filter>
</defs>
</svg>
