<svg width="245" height="175" viewBox="0 0 245 175" fill="none" xmlns="http://www.w3.org/2000/svg">
<g id="&#208;&#154;&#209;&#128;&#208;&#176;&#209;&#136;">
<g id="Oval">
<rect id="Mask" width="245" height="175" fill="#226868"/>
<mask id="mask0" mask-type="alpha" maskUnits="userSpaceOnUse" x="0" y="0" width="245" height="175">
<rect id="Mask_2" width="245" height="175" fill="white"/>
</mask>
<g mask="url(#mask0)">
<g id="Crash">
<rect id="Rectangle" width="245" height="175" fill="#387DE5"/>
<g id="Group">
<g id="Group 2">
<circle id="Oval_2" cx="78.5" cy="209.5" r="69.5" fill="#5E9BFB"/>
<path id="Triangle" fill-rule="evenodd" clip-rule="evenodd" d="M73.6054 87.028L85.3855 179.495L55.4038 178.448L73.6054 87.028Z" fill="#5E9BFB"/>
<path id="Triangle_2" fill-rule="evenodd" clip-rule="evenodd" d="M159.13 38.9141L106.028 179.151L64.2328 155.021L159.13 38.9141Z" fill="#5E9BFB"/>
<path id="Triangle_3" fill-rule="evenodd" clip-rule="evenodd" d="M171.038 137.25L105.212 201.236L82.7119 162.264L171.038 137.25Z" fill="#5E9BFB"/>
<path id="Triangle_4" fill-rule="evenodd" clip-rule="evenodd" d="M35.8884 82.3971L72.0834 157.591L42.1397 165.615L35.8884 82.3971Z" fill="#5E9BFB"/>
</g>
<path id="Path" fill-rule="evenodd" clip-rule="evenodd" d="M71.5276 97.652L73.0715 102.725L73.0006 102.747C73.0897 102.872 73.1567 103.005 73.2002 103.148C73.8397 105.25 69.1583 108.55 62.7441 110.52C56.3299 112.491 50.6117 112.384 49.9721 110.283C49.9287 110.14 49.9098 109.991 49.9144 109.838L49.8435 109.86L48.2996 104.787L48.3704 104.765C49.5913 106.47 54.9648 106.438 60.9429 104.601C66.9209 102.765 71.3938 99.773 71.4567 97.674L71.5276 97.652Z" fill="#FFB841"/>
<path id="Path_2" d="M60.972 104.7C67.386 102.731 72.1101 99.574 71.5237 97.648C70.9372 95.722 65.2622 95.757 58.8482 97.726C52.4342 99.695 47.7101 102.852 48.2965 104.777C48.883 106.703 54.558 106.668 60.972 104.7Z" fill="#FFFD62"/>
<path id="Path_3" fill-rule="evenodd" clip-rule="evenodd" d="M208.466 79.128L212.171 81.274L212.141 81.326C212.262 81.35 212.375 81.392 212.48 81.453C214.015 82.341 213.063 86.876 210.355 91.58C207.647 96.284 204.208 99.378 202.673 98.489C202.569 98.429 202.476 98.351 202.394 98.258L202.364 98.31L198.659 96.165L198.689 96.113C200.35 96.446 203.509 93.461 206.033 89.077C208.556 84.692 209.554 80.456 208.436 79.18L208.466 79.128Z" fill="#FFB841"/>
<path id="Path_4" d="M206.11 89.121C208.818 84.417 209.873 79.943 208.466 79.128C207.059 78.314 203.723 81.467 201.015 86.171C198.307 90.876 197.252 95.349 198.659 96.164C200.066 96.979 203.402 93.825 206.11 89.121Z" fill="#FFFD62"/>
<path id="Path_5" fill-rule="evenodd" clip-rule="evenodd" d="M152.085 70.9009L148.111 77.8038L148.018 77.7498C147.971 77.9748 147.892 78.1848 147.78 78.3788C146.134 81.2388 137.975 79.6048 129.555 74.7298C121.136 69.8541 115.646 63.5841 117.292 60.7247C117.404 60.5302 117.546 60.3565 117.716 60.2032L117.623 60.1494L121.596 53.2464L121.689 53.3004C121.042 56.377 126.345 62.1322 134.191 66.6757C142.038 71.2193 149.659 72.9478 151.991 70.8472L152.085 70.9009Z" fill="#FFB841"/>
<path id="Path_6" d="M133.746 67.783C142.171 72.6467 150.224 74.4693 151.734 71.8546C153.244 69.2398 147.638 63.1775 139.214 58.3142C130.788 53.4507 122.735 51.6278 121.225 54.2426C119.716 56.8573 125.322 62.9196 133.746 67.783Z" fill="#FFFD62"/>
<path id="Shape" fill-rule="evenodd" clip-rule="evenodd" d="M225.014 97.984L225.036 100.159L223.19 99.04L221.62 99.949L224.725 101.741L224.713 105.487L226.288 104.575L226.267 102.285L228.239 103.446L229.809 102.537L226.569 100.674L226.579 97.078L225.014 97.984ZM219.522 100.141L218.826 98.932L218.583 99.073C217.838 99.508 217.28 100.058 216.909 100.723C216.537 101.388 216.377 102.115 216.429 102.905C216.48 103.694 216.737 104.491 217.199 105.293L217.503 105.822C218.024 106.726 218.679 107.311 219.469 107.576C220.259 107.841 221.042 107.749 221.819 107.299C222.298 107.021 222.665 106.664 222.92 106.227C223.176 105.791 223.295 105.317 223.278 104.808C223.262 104.298 223.115 103.803 222.838 103.322C222.405 102.57 221.867 102.073 221.224 101.831C220.581 101.59 219.938 101.655 219.297 102.026C218.699 102.372 218.319 102.859 218.158 103.485C217.895 102.842 217.87 102.236 218.08 101.667C218.291 101.098 218.724 100.617 219.38 100.223L219.522 100.141ZM214.885 103.937C215.092 104.296 215.186 104.666 215.167 105.048C215.148 105.429 215.029 105.794 214.81 106.141C215.268 106.107 215.688 106.181 216.072 106.362C216.456 106.544 216.766 106.84 217.002 107.25C217.38 107.907 217.456 108.555 217.23 109.194C217.003 109.834 216.507 110.375 215.74 110.819C214.974 111.263 214.256 111.424 213.586 111.301C212.917 111.178 212.394 110.79 212.018 110.136C211.782 109.727 211.681 109.309 211.715 108.883C211.748 108.456 211.894 108.056 212.151 107.681C211.741 107.697 211.368 107.618 211.031 107.443C210.694 107.268 210.422 107.001 210.215 106.642C209.853 106.012 209.773 105.388 209.976 104.771C210.179 104.155 210.641 103.638 211.36 103.221C212.076 102.807 212.751 102.663 213.385 102.791C214.019 102.918 214.519 103.3 214.885 103.937ZM205.469 107.866L206.402 116.091L204.857 116.986L204.14 109.123L200.473 111.247L199.789 110.058L204.996 107.042L205.469 107.866ZM201.843 118.731L200.379 119.579L197.121 113.919L195.687 115.475L195 114.281L197.422 111.415L197.579 111.324L201.843 118.731ZM209.82 112.391C209.747 112.628 209.778 112.863 209.912 113.096C210.045 113.327 210.23 113.469 210.468 113.523C210.707 113.577 210.946 113.535 211.185 113.396C211.429 113.255 211.586 113.068 211.659 112.834C211.731 112.6 211.701 112.368 211.569 112.137C211.434 111.904 211.246 111.759 211.006 111.705C210.765 111.65 210.524 111.692 210.285 111.831C210.048 111.968 209.893 112.155 209.82 112.391ZM214.748 107.383C215.045 107.469 215.286 107.672 215.471 107.994C215.661 108.323 215.718 108.632 215.645 108.923C215.572 109.214 215.376 109.451 215.059 109.635C214.735 109.823 214.426 109.873 214.132 109.786C213.839 109.698 213.601 109.497 213.42 109.182C213.233 108.857 213.177 108.545 213.253 108.246C213.328 107.947 213.521 107.708 213.832 107.528C214.146 107.346 214.452 107.298 214.748 107.383ZM213.462 104.856C213.297 104.568 213.088 104.381 212.835 104.294C212.583 104.208 212.318 104.245 212.041 104.405C211.768 104.564 211.604 104.772 211.549 105.029C211.495 105.286 211.554 105.564 211.725 105.862C211.895 106.157 212.107 106.35 212.362 106.441C212.618 106.533 212.884 106.498 213.161 106.338C213.438 106.178 213.6 105.964 213.647 105.698C213.693 105.431 213.632 105.151 213.462 104.856ZM219.529 103.463C219.293 103.6 219.114 103.786 218.993 104.021C218.871 104.256 218.824 104.502 218.849 104.758L219.107 105.205C219.39 105.696 219.707 106.024 220.058 106.188C220.409 106.353 220.759 106.334 221.107 106.133C221.421 105.951 221.603 105.679 221.654 105.318C221.705 104.957 221.616 104.578 221.388 104.182C221.156 103.779 220.871 103.51 220.533 103.376C220.195 103.242 219.86 103.271 219.529 103.463Z" fill="white"/>
<path id="Path_7" d="M-39 187.613C101.392 181.645 188.656 139.023 188.656 46.871" stroke="url(#paint0_linear)" stroke-width="4"/>
<g id="Clipped">
<mask id="mask1" mask-type="alpha" maskUnits="userSpaceOnUse" x="181" y="43" width="15" height="16">
<path id="Path_8" fill-rule="evenodd" clip-rule="evenodd" d="M188.391 58.0409C192.345 58.0409 195.55 54.826 195.55 50.8602C195.55 46.8945 192.345 43.6796 188.391 43.6796C184.437 43.6796 181.232 46.8945 181.232 50.8602C181.232 54.826 184.437 58.0409 188.391 58.0409Z" fill="white"/>
</mask>
<g mask="url(#mask1)">
<g id="Group_2">
<path id="Path_9" d="M188.391 58.0409C192.345 58.0409 195.55 54.826 195.55 50.8602C195.55 46.8945 192.345 43.6796 188.391 43.6796C184.437 43.6796 181.232 46.8945 181.232 50.8602C181.232 54.826 184.437 58.0409 188.391 58.0409Z" fill="#DADADA"/>
<path id="Path_10" d="M183.087 54.8495C187.041 54.8495 190.246 51.6346 190.246 47.6689C190.246 43.7031 187.041 40.4882 183.087 40.4882C179.133 40.4882 175.928 43.7031 175.928 47.6689C175.928 51.6346 179.133 54.8495 183.087 54.8495Z" fill="#E9E6E6"/>
</g>
</g>
</g>
<path id="Shape_2" fill-rule="evenodd" clip-rule="evenodd" d="M44.9843 80.28L42.7686 79.643L45.2176 71.076L42.3373 71.138L42.854 69.331L47.9519 69L48.1896 69.068L44.9843 80.28ZM49.1299 80.291C49.231 79.937 49.4319 79.684 49.7326 79.532C50.0333 79.38 50.3626 79.355 50.7204 79.458C51.0833 79.563 51.352 79.759 51.5267 80.048C51.7013 80.337 51.7381 80.658 51.637 81.012C51.5373 81.36 51.3388 81.61 51.0414 81.76C50.744 81.91 50.4112 81.933 50.0432 81.827C49.6803 81.722 49.4125 81.527 49.2396 81.242C49.0668 80.956 49.0302 80.639 49.1299 80.291ZM56.3389 83.546L58.5546 84.183L61.7599 72.971L61.5223 72.903L56.4243 73.234L55.9077 75.041L58.7879 74.979L56.3389 83.546ZM66.3169 79.292L67.4976 79.631C68.0599 79.793 68.5167 79.772 68.8682 79.568C69.2197 79.364 69.4622 79.029 69.5956 78.562C69.7245 78.111 69.6908 77.721 69.4942 77.393C69.2977 77.064 68.9643 76.833 68.4941 76.697C68.0699 76.575 67.6813 76.59 67.3284 76.741C66.9755 76.892 66.7455 77.154 66.6385 77.528L64.4228 76.891C64.5899 76.307 64.8969 75.828 65.3439 75.454C65.7909 75.081 66.3341 74.844 66.9737 74.745C67.6132 74.646 68.2729 74.695 68.9527 74.89C70.1334 75.23 70.9775 75.779 71.4851 76.538C71.9928 77.297 72.1044 78.174 71.8201 79.169C71.6735 79.681 71.3828 80.108 70.9479 80.449C70.513 80.79 70.0096 81.003 69.4376 81.088C70.0018 81.495 70.374 81.968 70.5543 82.508C70.7345 83.048 70.7367 83.626 70.5608 84.241C70.2765 85.235 69.687 85.929 68.7923 86.32C67.8975 86.712 66.8547 86.737 65.6638 86.394C64.5496 86.074 63.7228 85.517 63.1834 84.724C62.644 83.931 62.5129 83.05 62.7899 82.081L65.0056 82.718C64.8854 83.138 64.9444 83.527 65.1825 83.884C65.4206 84.241 65.7697 84.486 66.2297 84.618C66.7562 84.769 67.2088 84.748 67.5877 84.555C67.9666 84.362 68.222 84.034 68.3539 83.573C68.6734 82.455 68.2198 81.72 66.9931 81.367L65.8201 81.03L66.3169 79.292ZM78.2144 80.833L76.1089 82.915L75.4543 80.039L73.0776 79.355L74.2662 84.108L70.5916 87.645L72.9759 88.331L75.1954 86.14L75.9277 89.18L78.3044 89.863L77.0569 84.911L80.5834 81.514L78.2144 80.833Z" fill="white"/>
<path id="Shape_3" fill-rule="evenodd" clip-rule="evenodd" d="M142.842 17.7304L142.886 21.8824L139.361 19.7464L136.363 21.4823L142.291 24.9038L142.269 32.0553L145.276 30.3138L145.235 25.9408L148.999 28.1578L151.997 26.4218L145.811 22.8654L145.83 16L142.842 17.7304ZM132.358 21.8489L131.029 19.5405L130.565 19.8093C129.144 20.6408 128.079 21.6909 127.369 22.9596C126.66 24.2283 126.354 25.6165 126.453 27.1242C126.552 28.632 127.042 30.1521 127.924 31.6846L128.505 32.6933C129.498 34.4198 130.749 35.5362 132.257 36.0425C133.765 36.5488 135.26 36.3727 136.743 35.514C137.658 34.9839 138.359 34.3019 138.846 33.4681C139.333 32.6343 139.561 31.7308 139.53 30.7576C139.498 29.7844 139.218 28.8387 138.69 27.9205C137.863 26.485 136.836 25.5366 135.608 25.0753C134.379 24.614 133.153 24.738 131.928 25.4474C130.787 26.1082 130.062 27.0366 129.753 28.2327C129.253 27.005 129.204 25.8481 129.606 24.7618C130.008 23.6755 130.835 22.7568 132.087 22.0057L132.358 21.8489ZM118.362 34.8293L119.851 33.9669C120.56 33.5563 120.983 33.0742 121.12 32.5207C121.257 31.9672 121.157 31.3962 120.818 30.8078C120.49 30.2388 120.066 29.8938 119.545 29.773C119.024 29.6521 118.467 29.7634 117.874 30.1069C117.339 30.4168 116.976 30.8233 116.784 31.3266C116.593 31.8299 116.633 32.3175 116.904 32.7896L114.11 34.4079C113.685 33.6708 113.503 32.8948 113.563 32.08C113.622 31.2652 113.913 30.4867 114.436 29.7444C114.958 29.0021 115.648 28.3827 116.506 27.8862C117.995 27.0238 119.367 26.7053 120.623 26.9308C121.879 27.1563 122.868 27.8962 123.59 29.1506C123.962 29.7973 124.108 30.506 124.028 31.2769C123.947 32.0478 123.671 32.7635 123.201 33.4241C124.157 33.2494 124.994 33.3336 125.712 33.6768C126.43 34.02 127.012 34.5795 127.458 35.3555C128.18 36.6099 128.303 37.8795 127.826 39.1643C127.35 40.4491 126.36 41.5264 124.858 42.3963C123.453 43.2101 122.09 43.5038 120.769 43.2772C119.448 43.0507 118.435 42.3263 117.732 41.1042L120.527 39.4859C120.832 40.0161 121.28 40.3345 121.87 40.4412C122.46 40.5478 123.045 40.4332 123.625 40.0972C124.289 39.7126 124.708 39.235 124.882 38.6642C125.057 38.0934 124.976 37.517 124.641 36.935C123.83 35.5254 122.651 35.2686 121.103 36.1646L119.624 37.0213L118.362 34.8293ZM103.182 54.69L112.833 49.1014L111.532 46.8414L105.478 50.3469L106.731 45.1083C107.053 43.6371 107.186 42.4349 107.13 41.5016C107.074 40.5684 106.845 39.7526 106.443 39.0542C105.71 37.7804 104.741 37.0267 103.537 36.7931C102.332 36.5596 101.005 36.8628 99.554 37.7028C98.6063 38.2515 97.8749 38.9445 97.3597 39.7817C96.8445 40.6189 96.5869 41.5117 96.587 42.46C96.587 43.4084 96.8346 44.3125 97.3296 45.1725L100.134 43.5486C99.7245 42.8373 99.5763 42.158 99.6893 41.5106C99.8023 40.8632 100.175 40.3566 100.806 39.9907C101.393 39.651 101.948 39.5691 102.47 39.745C102.993 39.921 103.434 40.3225 103.795 40.9498C104.06 41.4089 104.189 41.9806 104.183 42.665C104.178 43.3495 104.059 44.2154 103.828 45.263L102.076 52.7696L103.182 54.69ZM113.837 45.235C113.697 45.6866 113.756 46.1355 114.013 46.5817C114.266 47.0214 114.62 47.2928 115.074 47.3959C115.529 47.4989 115.985 47.4179 116.443 47.1529C116.907 46.8841 117.209 46.5264 117.347 46.0799C117.485 45.6333 117.428 45.1902 117.175 44.7505C116.918 44.3043 116.56 44.029 116.1 43.9246C115.64 43.8201 115.181 43.9004 114.724 44.1655C114.272 44.4268 113.977 44.7833 113.837 45.235ZM132.372 28.1904C131.921 28.4517 131.58 28.8068 131.348 29.2556C131.116 29.7044 131.025 30.1732 131.074 30.662L131.566 31.5155C132.106 32.4531 132.711 33.079 133.382 33.3932C134.052 33.7074 134.72 33.6722 135.384 33.2877C135.983 32.9405 136.332 32.422 136.429 31.732C136.526 31.0421 136.357 30.3189 135.921 29.5623C135.478 28.7928 134.934 28.2804 134.288 28.0249C133.643 27.7694 133.004 27.8245 132.372 28.1904Z" fill="white"/>
</g>
</g>
</g>
</g>
</g>
<defs>
<linearGradient id="paint0_linear" x1="95.741" y1="18.3336" x2="4.60578" y2="178.596" gradientUnits="userSpaceOnUse">
<stop stop-color="white"/>
<stop offset="1" stop-color="#397CE5"/>
</linearGradient>
</defs>
</svg>
