<svg width="149" height="59" viewBox="0 0 149 59" fill="none" xmlns="http://www.w3.org/2000/svg">
<path fill-rule="evenodd" clip-rule="evenodd" d="M148.201 10.7948L138.265 57.8875L130.086 45.2875L110.836 57.8243L105.776 57.8245L102.865 57.8247L84.53 29.6429L109.429 13.4691L101.151 0.720001L148.201 10.7948Z" fill="url(#paint0_linear)"/>
<path d="M8.93719 45.6716C8.93719 47.5382 9.4222 48.9858 10.3921 50.0147C11.3767 51.0582 12.7654 51.5799 14.5582 51.5799C16.3511 51.5799 17.7324 51.0582 18.7023 50.0147C19.6722 48.9858 20.1572 47.5382 20.1572 45.6716V26.0065H28.247V46.5314C28.247 50.1029 26.9979 52.9688 24.4997 55.1294C22.0014 57.2899 18.6877 58.3701 14.5582 58.3701C10.4141 58.3701 7.093 57.2899 4.5947 55.1294C2.0965 52.9688 0.847397 50.1029 0.847397 46.5314V26.0065H8.93719V45.6716ZM47.0057 26.0065C50.4297 26.0065 53.1851 27.028 55.2719 29.0709C57.388 31.1432 58.4461 33.8769 58.4461 37.272C58.4461 40.6525 57.3366 43.3714 55.1176 45.4291C52.9279 47.472 50.055 48.4935 46.4987 48.4935H41.1422V57.819H33.0524V26.0065H47.0057ZM41.1422 42.4088H44.8014C46.5354 42.4088 47.8801 41.9752 48.8353 41.1081C49.7905 40.2115 50.2681 38.9402 50.2681 37.2941C50.2681 35.648 49.7905 34.384 48.8353 33.5022C47.8948 32.635 46.5648 32.2014 44.8455 32.2014H41.1422V42.4088ZM64.3064 44.8496V38.1255H78.811V44.8496H64.3064ZM90.339 41.8797V41.7033L80.64 26.0065H90.075L95.916 36.765H96.071L101.956 26.0065H110.928L100.81 41.7915V41.9458L110.839 57.819H101.758L95.586 47.5014H95.409L89.215 57.819H80.618L90.339 41.8797Z" fill="white"/>
<defs>
<linearGradient id="paint0_linear" x1="110.371" y1="43.3072" x2="130.345" y2="10.5601" gradientUnits="userSpaceOnUse">
<stop stop-color="#7271A8"/>
<stop offset="1" stop-color="#3D8DD0"/>
</linearGradient>
</defs>
</svg>
