<svg width="245" height="175" viewBox="0 0 245 175" fill="none" xmlns="http://www.w3.org/2000/svg">
<path d="M245 0H0V175H245V0Z" fill="#31D268"/>
<path d="M64.4212 12.7809H27.1924C24.4753 12.7809 22.2727 14.9818 22.2727 17.6966V54.8956C22.2727 57.6105 24.4753 59.8113 27.1924 59.8113H64.4212C67.1383 59.8113 69.3409 57.6105 69.3409 54.8956V17.6966C69.3409 14.9818 67.1383 12.7809 64.4212 12.7809Z" fill="#22AA51"/>
<path d="M115.638 12.7809H78.4092C75.6921 12.7809 73.4895 14.9818 73.4895 17.6966V54.8956C73.4895 57.6105 75.6921 59.8113 78.4092 59.8113H115.638C118.355 59.8113 120.558 57.6105 120.558 54.8956V17.6966C120.558 14.9818 118.355 12.7809 115.638 12.7809Z" fill="#22AA51"/>
<path d="M166.426 12.7809H129.198C126.48 12.7809 124.278 14.9818 124.278 17.6966V54.8956C124.278 57.6105 126.48 59.8113 129.198 59.8113H166.426C169.143 59.8113 171.346 57.6105 171.346 54.8956V17.6966C171.346 14.9818 169.143 12.7809 166.426 12.7809Z" fill="#22AA51"/>
<path d="M217.215 12.7809H179.986C177.269 12.7809 175.066 14.9818 175.066 17.6966V54.8956C175.066 57.6105 177.269 59.8113 179.986 59.8113H217.215C219.932 59.8113 222.134 57.6105 222.134 54.8956V17.6966C222.134 14.9818 219.932 12.7809 217.215 12.7809Z" fill="#22AA51"/>
<path d="M64.4212 63.5285H27.1924C24.4753 63.5285 22.2727 65.7294 22.2727 68.4443V105.643C22.2727 108.358 24.4753 110.559 27.1924 110.559H64.4212C67.1383 110.559 69.3409 108.358 69.3409 105.643V68.4443C69.3409 65.7294 67.1383 63.5285 64.4212 63.5285Z" fill="#22AA51"/>
<path d="M64.4212 114.276H27.1924C24.4753 114.276 22.2727 116.477 22.2727 119.192V156.391C22.2727 159.106 24.4753 161.307 27.1924 161.307H64.4212C67.1383 161.307 69.3409 159.106 69.3409 156.391V119.192C69.3409 116.477 67.1383 114.276 64.4212 114.276Z" fill="#22AA51"/>
<path d="M115.638 63.5285H78.4092C75.6921 63.5285 73.4895 65.7294 73.4895 68.4443V105.643C73.4895 108.358 75.6921 110.559 78.4092 110.559H115.638C118.355 110.559 120.558 108.358 120.558 105.643V68.4443C120.558 65.7294 118.355 63.5285 115.638 63.5285Z" fill="#22AA51"/>
<path fill-rule="evenodd" clip-rule="evenodd" d="M86.4327 76.691C86.7834 76.0795 87.4348 75.7023 88.1402 75.7023H105.907C106.612 75.7023 107.264 76.0795 107.614 76.691L112.274 84.8183L98.379 98.0108C97.6194 98.732 96.4275 98.732 95.668 98.0108L81.7725 84.8183L86.4327 76.691Z" fill="#63FF98" stroke="white" stroke-width="2"/>
<path fill-rule="evenodd" clip-rule="evenodd" d="M88.1402 75.7023H105.907C106.612 75.7023 107.264 76.0795 107.614 76.691L112.274 84.8183H81.7725L86.4327 76.691C86.7834 76.0795 87.4348 75.7023 88.1402 75.7023Z" fill="#5EF992"/>
<path fill-rule="evenodd" clip-rule="evenodd" d="M107.047 75.7023L112.275 84.8183H103.167L107.047 75.7023Z" fill="#43DE77"/>
<path fill-rule="evenodd" clip-rule="evenodd" d="M88.1402 75.7023H97.0235V85.0734L81.7725 84.8183L86.4327 76.691C86.7834 76.0795 87.4348 75.7023 88.1402 75.7023Z" fill="#6DC88C"/>
<path fill-rule="evenodd" clip-rule="evenodd" d="M86.9997 75.7023L90.8806 85.0734L81.7725 84.8183L86.9997 75.7023Z" fill="#219348"/>
<path fill-rule="evenodd" clip-rule="evenodd" d="M81.7725 84.8183H112.274L98.379 98.0108C97.6194 98.732 96.4275 98.732 95.668 98.0108L81.7725 84.8183Z" fill="#63FF98"/>
<path fill-rule="evenodd" clip-rule="evenodd" d="M103.166 84.8183L98.3071 98.0108C97.6055 98.732 96.4415 98.732 95.74 98.0108L90.8806 84.8183H103.166Z" fill="#B8FED0"/>
<path fill-rule="evenodd" clip-rule="evenodd" d="M90.8807 84.8183L97.0236 75.7023L103.167 84.8183H90.8807Z" fill="#E9FFF1"/>
<path fill-rule="evenodd" clip-rule="evenodd" d="M137.221 25.4872C137.572 24.8756 138.223 24.4984 138.929 24.4984H156.695C157.4 24.4984 158.052 24.8756 158.403 25.4872L163.063 33.6144L149.167 46.807C148.408 47.5281 147.216 47.5281 146.456 46.807L132.561 33.6144L137.221 25.4872Z" fill="#63FF98" stroke="white" stroke-width="2"/>
<path fill-rule="evenodd" clip-rule="evenodd" d="M138.929 24.4984H156.695C157.4 24.4984 158.052 24.8756 158.403 25.4872L163.063 33.6144H132.561L137.221 25.4872C137.572 24.8756 138.223 24.4984 138.929 24.4984Z" fill="#5EF992"/>
<path fill-rule="evenodd" clip-rule="evenodd" d="M157.836 24.4984L163.063 33.6144H153.955L157.836 24.4984Z" fill="#43DE77"/>
<path fill-rule="evenodd" clip-rule="evenodd" d="M138.929 24.4984H147.812V33.8695L132.561 33.6144L137.221 25.4872C137.572 24.8756 138.223 24.4984 138.929 24.4984Z" fill="#6DC88C"/>
<path fill-rule="evenodd" clip-rule="evenodd" d="M137.788 24.4984L141.669 33.8695L132.561 33.6144L137.788 24.4984Z" fill="#219348"/>
<path fill-rule="evenodd" clip-rule="evenodd" d="M132.561 33.6144H163.063L149.167 46.807C148.408 47.5281 147.216 47.5281 146.456 46.807L132.561 33.6144Z" fill="#63FF98"/>
<path fill-rule="evenodd" clip-rule="evenodd" d="M153.955 33.6144L149.095 46.807C148.394 47.5281 147.23 47.5281 146.528 46.807L141.669 33.6144H153.955Z" fill="#B8FED0"/>
<path fill-rule="evenodd" clip-rule="evenodd" d="M141.669 33.6144L147.812 24.4984L153.955 33.6144H141.669Z" fill="#E9FFF1"/>
<path d="M115.638 114.276H78.4092C75.6921 114.276 73.4895 116.477 73.4895 119.192V156.391C73.4895 159.106 75.6921 161.307 78.4092 161.307H115.638C118.355 161.307 120.558 159.106 120.558 156.391V119.192C120.558 116.477 118.355 114.276 115.638 114.276Z" fill="#22AA51"/>
<path d="M166.426 114.276H129.198C126.48 114.276 124.278 116.477 124.278 119.192V156.391C124.278 159.106 126.48 161.307 129.198 161.307H166.426C169.143 161.307 171.346 159.106 171.346 156.391V119.192C171.346 116.477 169.143 114.276 166.426 114.276Z" fill="#22AA51"/>
<path d="M217.215 63.5285H179.986C177.269 63.5285 175.066 65.7294 175.066 68.4443V105.643C175.066 108.358 177.269 110.559 179.986 110.559H217.215C219.932 110.559 222.134 108.358 222.134 105.643V68.4443C222.134 65.7294 219.932 63.5285 217.215 63.5285Z" fill="#22AA51"/>
<path d="M217.215 114.276H179.986C177.269 114.276 175.066 116.477 175.066 119.192V156.391C175.066 159.106 177.269 161.307 179.986 161.307H217.215C219.932 161.307 222.134 159.106 222.134 156.391V119.192C222.134 116.477 219.932 114.276 217.215 114.276Z" fill="#22AA51"/>
<path fill-rule="evenodd" clip-rule="evenodd" d="M188.01 76.691C188.36 76.0795 189.012 75.7023 189.717 75.7023H207.484C208.189 75.7023 208.84 76.0795 209.191 76.691L213.851 84.8183L199.956 98.0109C199.196 98.732 198.004 98.732 197.245 98.0109L183.349 84.8183L188.01 76.691Z" fill="#63FF98" stroke="white" stroke-width="2"/>
<path fill-rule="evenodd" clip-rule="evenodd" d="M189.717 75.7023H207.484C208.189 75.7023 208.84 76.0795 209.191 76.691L213.851 84.8183H183.349L188.01 76.691C188.36 76.0795 189.012 75.7023 189.717 75.7023Z" fill="#5EF992"/>
<path fill-rule="evenodd" clip-rule="evenodd" d="M208.624 75.7023L213.851 84.8183H204.743L208.624 75.7023Z" fill="#43DE77"/>
<path fill-rule="evenodd" clip-rule="evenodd" d="M189.717 75.7023H198.6V85.0734L183.349 84.8183L188.01 76.691C188.36 76.0795 189.012 75.7023 189.717 75.7023Z" fill="#6DC88C"/>
<path fill-rule="evenodd" clip-rule="evenodd" d="M188.577 75.7023L192.457 85.0734L183.349 84.8183L188.577 75.7023Z" fill="#219348"/>
<path fill-rule="evenodd" clip-rule="evenodd" d="M183.349 84.8183H213.851L199.956 98.0109C199.196 98.732 198.004 98.732 197.245 98.0109L183.349 84.8183Z" fill="#63FF98"/>
<path fill-rule="evenodd" clip-rule="evenodd" d="M204.743 84.8183L199.884 98.0109C199.182 98.732 198.018 98.732 197.317 98.0109L192.458 84.8183H204.743Z" fill="#B8FED0"/>
<path fill-rule="evenodd" clip-rule="evenodd" d="M192.458 84.8183L198.601 75.7023L204.743 84.8183H192.458Z" fill="#E9FFF1"/>
<path d="M154.034 105.718C161.61 106.653 168.512 101.272 169.45 93.6989C170.388 86.1262 165.006 79.2296 157.43 78.295C149.854 77.3604 142.951 82.7416 142.014 90.3143C141.076 97.887 146.458 104.784 154.034 105.718Z" fill="#323232" stroke="white"/>
<path fill-rule="evenodd" clip-rule="evenodd" d="M152.016 78.1479L152.982 79.7593L152.96 79.7722C153.001 79.8077 153.035 79.8481 153.062 79.8935C153.462 80.561 152.188 82.0601 150.216 83.242C148.245 84.4239 146.322 84.8409 145.923 84.1735C145.895 84.128 145.876 84.0787 145.864 84.0259L145.842 84.0392L144.877 82.4279L144.899 82.415C145.458 82.9007 147.253 82.4635 149.09 81.3621C150.927 80.2607 152.159 78.8838 151.995 78.1612L152.016 78.1479Z" fill="#3A3A3A"/>
<path d="M149.299 81.517C151.27 80.3353 152.571 78.8813 152.205 78.2695C151.838 77.6576 149.943 78.1196 147.971 79.3013C146 80.4831 144.699 81.937 145.065 82.5489C145.432 83.1607 147.327 82.6988 149.299 81.517Z" fill="#808080" stroke="white" stroke-width="2"/>
<path d="M149.14 81.2527C150.222 80.6042 150.873 79.7006 150.593 79.2346C150.314 78.7685 149.211 78.9165 148.129 79.5651C147.047 80.2137 146.396 81.1172 146.675 81.5833C146.954 82.0493 148.058 81.9013 149.14 81.2527Z" fill="#3A3A3A"/>
<path d="M134.7 76.8182C135.263 80.4338 137.312 82.0079 140.41 80.9944C141.648 80.5893 142.314 79.9053 142.788 78.8268L142.924 78.4941L143.016 78.2499C143.417 77.18 143.612 77.0095 144.943 77.0034C146.739 76.9953 147.511 77.7869 147.564 79.7535L147.593 80.7929L149.674 80.7354L149.646 79.696C149.562 76.6262 147.889 74.9105 144.934 74.9239C142.716 74.9339 141.809 75.6567 141.139 77.3322L140.945 77.8391C140.674 78.5198 140.422 78.8025 139.762 79.0182C137.995 79.5965 137.138 78.9384 136.758 76.4978L136.598 75.4704L134.54 75.7908L134.7 76.8182Z" fill="#3A3A3A" stroke="white" stroke-width="2"/>
<path fill-rule="evenodd" clip-rule="evenodd" d="M152.016 78.1479L152.982 79.7593L152.96 79.7722C153.001 79.8077 153.035 79.8481 153.062 79.8935C153.462 80.561 152.188 82.0601 150.216 83.242C148.245 84.4239 146.322 84.8409 145.923 84.1735C145.895 84.128 145.876 84.0787 145.864 84.0259L145.842 84.0392L144.877 82.4279L144.899 82.415C145.458 82.9007 147.253 82.4635 149.09 81.3621C150.927 80.2607 152.159 78.8838 151.995 78.1612L152.016 78.1479Z" fill="#3A3A3A"/>
<path d="M149.299 81.517C151.27 80.3353 152.571 78.8813 152.205 78.2695C151.838 77.6576 149.943 78.1196 147.971 79.3013C146 80.4831 144.699 81.937 145.065 82.5489C145.432 83.1607 147.327 82.6988 149.299 81.517Z" fill="#808080"/>
<path d="M149.14 81.2527C150.222 80.6042 150.873 79.7006 150.593 79.2346C150.314 78.7685 149.211 78.9165 148.129 79.5651C147.047 80.2137 146.396 81.1172 146.675 81.5833C146.954 82.0493 148.058 81.9013 149.14 81.2527Z" fill="#3A3A3A"/>
<path d="M134.7 76.8182C135.263 80.4338 137.312 82.0079 140.41 80.9944C141.648 80.5893 142.314 79.9053 142.788 78.8268L142.924 78.4941L143.016 78.2499C143.417 77.18 143.612 77.0095 144.943 77.0034C146.739 76.9953 147.511 77.7869 147.564 79.7535L147.593 80.7929L149.674 80.7354L149.646 79.696C149.562 76.6262 147.889 74.9105 144.934 74.9239C142.716 74.9339 141.809 75.6567 141.139 77.3322L140.945 77.8391C140.674 78.5198 140.422 78.8025 139.762 79.0182C137.995 79.5965 137.138 78.9384 136.758 76.4978L136.598 75.4704L134.54 75.7908L134.7 76.8182Z" fill="#3A3A3A"/>
<path fill-rule="evenodd" clip-rule="evenodd" d="M159.32 82.9293C164.216 83.5335 167.694 87.9924 167.088 92.8885C166.788 95.3109 165.545 97.3864 163.772 98.7922C164.281 97.6227 164.639 96.3329 164.809 94.9611C165.524 89.185 162.641 84.0032 158.26 82.8615C158.611 82.863 158.964 82.8854 159.32 82.9293Z" fill="#CACACA"/>
<path fill-rule="evenodd" clip-rule="evenodd" d="M140.401 83.4745L139.886 86.8424L136.815 85.1539L134.404 87.4765L132.822 84.3511L129.434 84.7413L129.946 81.3727L126.876 79.6814L129.286 77.3563L127.707 74.2296L131.093 73.8361L131.608 70.4682L134.679 72.1567L137.09 69.8341L138.672 72.9595L142.06 72.5694L141.548 75.9379L144.618 77.6292L142.209 79.9543L143.787 83.0811L140.401 83.4745Z" fill="#D94444" stroke="white"/>
<path fill-rule="evenodd" clip-rule="evenodd" d="M138.262 81.2592L137.984 83.079L136.324 82.1667L135.021 83.4216L134.167 81.7329L132.336 81.9437L132.613 80.1236L130.954 79.2097L132.256 77.9534L131.403 76.2639L133.233 76.0513L133.511 74.2316L135.17 75.1439L136.473 73.8889L137.328 75.5777L139.158 75.3669L138.882 77.187L140.54 78.1009L139.239 79.3572L140.092 81.0466L138.262 81.2592Z" fill="#FFE95F"/>
</svg>
